# xmcd
#
# Track frame offsets:
#	150
#	30150
#	48104
#	67108
#	88714
#	120571
#	155092
#	178066
#	203080
#	222139
#	250948
#	264791
#
# Disc length: 4205 seconds
#
# Revision: 0
# Processed by: cddbd v1.5.2PL0 Copyright (c) Steve Scherf et al.
# Submitted via: EZCDAudioConverter 5.0.1.1
#
DISCID=9d106b0c
DTITLE=Larry Miller
DYEAR=2016
DGENRE=Blues Rock
TTITLE0=No More Mister Nice Guy
TTITLE1=Still Ain't Done With The Blues
TTITLE2=Black Oak Arkansas Hangman
TTITLE3=Calling All The Angels
TTITLE4=Come Hell Or High Water
TTITLE5=Bathsheba
TTITLE6=Keeper Of The Flame
TTITLE7=Mississippi Mama
TTITLE8=As Blue As It Gets
TTITLE9=The Devil's In The Detail
TTITLE10=Yours And No Other
TTITLE11=The Wrong Name
EXTD=
EXTT0=
EXTT1=
EXTT2=
EXTT3=
EXTT4=
EXTT5=
EXTT6=
EXTT7=
EXTT8=
EXTT9=
EXTT10=
EXTT11=
PLAYORDER=
